<?xml version="1.0" encoding="UTF-8"?>
<svg width="367px" height="48px" viewBox="0 0 367 48" version="1.1" xmlns="http://www.w3.org/2000/svg" xmlns:xlink="http://www.w3.org/1999/xlink">
    <!-- Generator: Sketch 54.1 (76490) - https://sketchapp.com -->
    <title>Logo/White Copy</title>
    <desc>Created with Sketch.</desc>
    <g id="v2---iPhone-XS---working" stroke="none" stroke-width="1" fill="none" fill-rule="evenodd">
        <g id="Logo/White" transform="translate(-45.000000, -46.000000)" fill="#FFFFFF">
            <path d="M346.865,93.3581336 C333.18,93.3581336 326.145,82.9003268 326.145,70.0047204 C326.145,57.109114 333.53,46.6513072 346.865,46.6513072 L348.37,46.6513072 L348.51,46.6513072 C361.775,46.721968 369.09,57.1444444 369.09,70.0047204 C369.09,82.9003268 362.055,93.3581336 348.37,93.3581336 L346.865,93.3581336 Z M347.425,56.1551924 C341.685,56.1551924 338.535,62.3733479 338.535,70.0400508 C338.535,77.7067538 341.58,83.9249092 347.425,83.9249092 L348.09,83.9249092 C353.97,83.9249092 356.98,77.7067538 356.98,70.0400508 C356.98,62.4086783 353.935,56.2611837 348.3,56.1551924 L348.16,56.1551924 L347.425,56.1551924 Z M114.465,74.7389978 L114.465,92.2275599 L101.585,92.2275599 L101.585,47.7818809 L131.475,47.7818809 L131.475,56.9677923 L114.465,56.9677923 L114.465,65.270443 L130.705,65.270443 L130.705,74.7389978 L114.465,74.7389978 Z M165.04,82.4057008 L165.04,92.2275599 L133.575,92.2275599 L133.575,47.7818809 L164.025,47.7818809 L164.025,56.9677923 L146.455,56.9677923 L146.455,64.8111474 L162.695,64.8111474 L162.695,74.2797023 L146.455,74.2797023 L146.455,82.4057008 L165.04,82.4057008 Z M179.81,56.9677923 L179.845,56.9677923 L179.845,92.1922295 L166.93,92.1922295 L166.93,47.7465505 L191.535,47.7465505 C198.36,47.7465505 204.03,52.7988017 203.89,59.0522876 C203.75,65.4117647 200.39,68.5561728 195.805,70.216703 L207.32,92.1922295 L193.11,92.1922295 L180.02,66.2243646 L186.04,66.2243646 C189.365,66.1537037 191.395,64.9524691 191.43,61.3840959 C191.465,58.3810094 189.33,56.9677923 186.04,56.9677923 L179.81,56.9677923 Z M224.925,93.3228032 C211.03,92.8635076 204.205,82.7236747 204.205,69.8987291 C204.205,57.0737836 211.59,46.6513072 224.925,46.6513072 L228.845,46.6513072 C232.31,46.6513072 245.05,48.1351852 245.05,61.5254176 L233.325,61.5254176 C232.555,56.7558097 228.985,55.6958969 226.08,55.8018882 L225.415,55.8018882 C219.675,55.8018882 216.525,61.9847131 216.525,69.6160857 C216.525,77.2474582 219.57,83.4302832 225.415,83.4302832 C227.445,83.5009441 230.77,83.3949528 233.885,82.5470225 L233.885,75.6929194 L225.38,75.6929194 L225.38,66.4010167 L245.155,66.4010167 L245.155,89.8604212 C239.8,92.8988381 229.86,93.5347858 224.925,93.3228032 Z M381.83,61.7020697 L381.83,92.2275599 L371.19,92.2275599 L371.19,47.7818809 L387.29,47.7818809 L400.485,76.4701888 L400.485,47.7818809 L411.195,47.7818809 L411.195,92.2275599 L395.9,92.2275599 L381.83,61.7020697 Z M306.79,84.0662309 C310.045,84.0662309 312.705,82.0170661 312.81,79.5086057 C312.81,77.3534495 310.815,75.6929194 308.225,75.0923021 C305.495,74.4563544 302.835,73.8204067 299.16,72.7958243 C295.45,71.7712418 289.465,68.6268337 289.465,60.7834786 C289.465,51.0676107 296.78,46.6159768 307.35,46.6159768 C318.585,46.6159768 324.395,51.0676107 324.395,61.3487654 L312.32,61.3487654 C312.32,61.3487654 312.25,60.6774873 312.25,59.6529049 C312.25,57.4270879 309.975,55.5899056 307.175,55.5899056 C304.375,55.5899056 302.1,57.3917574 302.1,59.6529049 C302.1,61.3487654 303.115,62.8326434 305.25,63.4332607 C306.16,63.6805737 309.66,64.6698257 315.33,66.3303558 C321.525,68.1675381 325.48,73.5377633 325.48,79.0846405 C325.48,86.9633261 320.79,93.3581336 307.035,93.3581336 C294.295,93.3581336 290.06,88.0585694 288.765,81.1691358 C288.52,79.8265795 288.415,78.378032 288.415,76.894154 L300.14,76.894154 C300.315,78.5546841 300.42,80.2505447 301.645,81.8050835 C302.695,83.1476398 304.585,84.0662309 306.79,84.0662309 Z M266.995,93.3581336 C249.215,93.2874728 247.5,86.0447349 247.465,70.5346768 L247.465,47.8878722 L259.68,47.8878722 L259.68,69.474764 C259.715,78.3073711 259.61,83.1123094 266.995,83.1123094 C274.38,83.0769789 274.275,78.3073711 274.31,69.474764 L274.31,47.8878722 L286.525,47.8878722 L286.525,70.5346768 C286.49,86.0447349 284.775,93.4287945 266.995,93.3581336 Z M90.42,47.7818809 C90.42,60.0415396 80.48,70.0047204 68.195,70.0047204 L68.195,58.8756354 C74.32,58.8756354 79.29,53.9293755 79.29,47.7818809 L90.42,47.7818809 Z M68.16,81.0984749 C62.035,81.0984749 57.03,86.0800654 57.03,92.2275599 L45.9,92.2275599 C45.9,79.9325708 55.875,70.0047204 68.16,70.0047204 L68.16,81.0984749 Z M57.38,72.689833 L46.145,72.689833 C46.04,71.8419027 46.005,70.958642 46.005,70.0753813 C46.005,57.851053 55.945,47.9232026 68.195,47.9232026 L68.195,58.8756354 C62.035,58.8756354 57.065,63.8572259 57.065,70.0047204 C57.065,70.9233115 57.17,71.8419027 57.38,72.689833 Z M90.385,70.0753813 C90.385,82.2997095 80.445,92.2275599 68.16,92.2275599 L68.16,81.1338054 C74.32,81.1338054 79.325,76.152215 79.325,70.0047204 C79.325,69.0861293 79.22,68.1322077 79.01,67.2842774 L90.21,67.2842774 C90.315,68.2028686 90.385,69.1214597 90.385,70.0753813 Z" id="🎨-Logo-Color"></path>
        </g>
    </g>
</svg>